# xmcd
#
# Track frame offsets:
#	150
#	13349
#	26746
#	37436
#	52175
#	66148
#	78211
#	92222
#	101632
#	113128
#	132521
#	143920
#	157487
#	172467
#
# Disc length: 2542 seconds
# Revision: 0
# Processed by: cddbd v1.5.2PL0 Copyright (c) Steve Scherf et al.
# Submitted via: dBpowerAMP V12.0
#
DISCID=dc09ec0e
DTITLE=Kacey Musgraves - Movin' On
DYEAR=2002
DGENRE=Country
TTITLE0=I've Been Everywhere
TTITLE1=Montana Medley
TTITLE2=Sweet Prairie Muffin
TTITLE3=Rainbow Connection
TTITLE4=Chimebells (Texas-Style)
TTITLE5=The Auctioneer
TTITLE6=Olympic Yodel
TTITLE7=Mama Was The Rose Of San Antone
TTITLE8=Whatever Happened To The Yodelin' Cowgirls
TTITLE9=Cowboy Moon
TTITLE10=When The Bloom Is On The Sage
TTITLE11=Can't Shed A Tear
TTITLE12=I'll Be Movin' On
TTITLE13=America Reach Out Your Hand
EXTD=
EXTT0=
EXTT1=
EXTT2=
EXTT3=
EXTT4=
EXTT5=
EXTT6=
EXTT7=
EXTT8=
EXTT9=
EXTT10=
EXTT11=
EXTT12=
EXTT13=
PLAYORDER=
